<svg xmlns="http://www.w3.org/2000/svg" width="206.349" height="61.844" viewBox="0 0 206.349 61.844">
  <g id="Group_331" data-name="Group 331" transform="translate(0.5 0.5)">
    <path id="Path_95" data-name="Path 95" d="M156.221,411.888H-33.918a7.628,7.628,0,0,1-7.605-7.606V358.65a7.628,7.628,0,0,1,7.605-7.606H156.221a7.628,7.628,0,0,1,7.606,7.606v45.633a7.628,7.628,0,0,1-7.606,7.606" transform="translate(41.523 -351.044)" fill="none" stroke="#fff" stroke-miterlimit="10" stroke-width="1"/>
    <path id="Path_96" data-name="Path 96" d="M196.083,439.773a6.47,6.47,0,1,0,6.494,6.471,6.378,6.378,0,0,0-6.494-6.471m0,10.39a3.931,3.931,0,1,1,3.651-3.92,3.742,3.742,0,0,1-3.651,3.92m-14.167-10.39a6.47,6.47,0,1,0,6.495,6.471,6.378,6.378,0,0,0-6.495-6.471m0,10.39a3.93,3.93,0,1,1,3.652-3.92,3.742,3.742,0,0,1-3.652,3.92m-16.851-8.4V444.5h6.567a5.727,5.727,0,0,1-1.494,3.454,6.724,6.724,0,0,1-5.073,2.009,7.3,7.3,0,0,1,0-14.6,7,7,0,0,1,4.95,1.959l1.937-1.935a9.577,9.577,0,0,0-6.886-2.77,10.049,10.049,0,1,0,0,20.1,9.187,9.187,0,0,0,7.008-2.819,9.069,9.069,0,0,0,2.377-6.421,8.867,8.867,0,0,0-.147-1.714Zm68.918,2.131a6.014,6.014,0,0,0-5.538-4.117,6.148,6.148,0,0,0-6.1,6.471,6.33,6.33,0,0,0,6.419,6.469,6.437,6.437,0,0,0,5.392-2.867l-2.205-1.471a3.7,3.7,0,0,1-3.187,1.789,3.292,3.292,0,0,1-3.136-1.959l8.65-3.579Zm-8.823,2.157a3.548,3.548,0,0,1,3.382-3.774,2.5,2.5,0,0,1,2.4,1.372Zm-7.033,6.273h2.843V433.3h-2.843Zm-4.656-11.1h-.1a4.484,4.484,0,0,0-3.406-1.447,6.476,6.476,0,0,0,0,12.94,4.407,4.407,0,0,0,3.406-1.471h.1v.931c0,2.476-1.322,3.8-3.454,3.8a3.578,3.578,0,0,1-3.26-2.3l-2.475,1.03a6.165,6.165,0,0,0,5.735,3.823c3.333,0,6.151-1.961,6.151-6.738V440.166h-2.7Zm-3.258,8.944a3.935,3.935,0,0,1,0-7.841,3.952,3.952,0,0,1,0,7.841M247.3,433.306h-6.8v19.016h2.837v-7.2H247.3a5.915,5.915,0,1,0,0-11.811m.073,9.165h-4.037v-6.519h4.037a3.26,3.26,0,1,1,0,6.519m17.541-2.73a5.331,5.331,0,0,0-5.065,2.91l2.52,1.052a2.689,2.689,0,0,1,2.594-1.395,2.732,2.732,0,0,1,2.984,2.446v.2a6.282,6.282,0,0,0-2.96-.733c-2.715,0-5.48,1.492-5.48,4.281,0,2.545,2.227,4.183,4.721,4.183a4,4,0,0,0,3.622-1.859h.1v1.468h2.739V445c0-3.375-2.519-5.258-5.772-5.258m-.342,10.421c-.931,0-2.227-.465-2.227-1.615,0-1.468,1.614-2.029,3.009-2.029a5.065,5.065,0,0,1,2.594.636,3.441,3.441,0,0,1-3.375,3.009m16.1-10.006-3.254,8.245h-.1l-3.377-8.245h-3.057l5.063,11.522-2.887,6.41h2.96l7.8-17.932ZM255.1,452.321h2.838V433.306H255.1Z" transform="translate(-92.441 -406.687)" fill="#fff"/>
    <path id="Path_97" data-name="Path 97" d="M14.98,467.782l.029-.018,17.177-9.914-6.858-6.858L10.111,466.21a3.429,3.429,0,0,0,4.869,1.572Z" transform="translate(6.302 -419.221)" fill="#fff"/>
    <path id="Path_98" data-name="Path 98" d="M69.452,438.556l7.194-4.153a3.423,3.423,0,0,0,.045-6.033l-.1-.061-7.174-4.158-7.185,7.185Z" transform="translate(-29.251 -400.913)" fill="#fff"/>
    <path id="Path_99" data-name="Path 99" d="M23.355,416.369,9.195,402.212V430.53Z" transform="translate(6.928 -385.947)" fill="#fff"/>
    <path id="Path_100" data-name="Path 100" d="M32.159,398.649l-17.135-9.934a3.435,3.435,0,0,0-4.915,1.547l15.22,15.217Z" transform="translate(6.304 -376.403)" fill="#fff"/>
    <rect id="Rectangle_270" data-name="Rectangle 270" width="205.349" height="60.844" transform="translate(0 0)" fill="none"/>
    <path id="Path_101" data-name="Path 101" d="M158.423,384.083h3.03a5.266,5.266,0,0,1,2.561.6,4.125,4.125,0,0,1,1.681,1.674,5.468,5.468,0,0,1,0,4.936,4.124,4.124,0,0,1-1.681,1.674,5.267,5.267,0,0,1-2.561.6h-3.03Zm2.991,8.1a3.39,3.39,0,0,0,2.508-.893,3.857,3.857,0,0,0,0-4.936,3.39,3.39,0,0,0-2.508-.893h-1.535v6.723Z" transform="translate(-94.864 -373.581)" fill="#fff"/>
    <path id="Path_102" data-name="Path 102" d="M189.1,384.083h1.456v9.475H189.1Z" transform="translate(-115.793 -373.581)" fill="#fff"/>
    <path id="Path_103" data-name="Path 103" d="M200.448,392.628a3.572,3.572,0,0,1-1.31-1.932l1.376-.556a2.654,2.654,0,0,0,.754,1.3,1.857,1.857,0,0,0,1.31.5,1.965,1.965,0,0,0,1.21-.37,1.2,1.2,0,0,0,.5-1.019,1.265,1.265,0,0,0-.437-.986,4.61,4.61,0,0,0-1.509-.761l-.6-.212a4.438,4.438,0,0,1-1.608-.96A2.158,2.158,0,0,1,199.5,386a2.377,2.377,0,0,1,.377-1.3,2.615,2.615,0,0,1,1.059-.94,3.377,3.377,0,0,1,1.542-.344,3.034,3.034,0,0,1,1.972.6,3.068,3.068,0,0,1,1.006,1.356l-1.31.556a1.6,1.6,0,0,0-.556-.82,1.687,1.687,0,0,0-1.1-.344,1.754,1.754,0,0,0-1.1.344,1.055,1.055,0,0,0-.45.873,1,1,0,0,0,.4.814,4.238,4.238,0,0,0,1.251.615l.609.212a4.8,4.8,0,0,1,1.879,1.1,2.46,2.46,0,0,1,.661,1.8,2.522,2.522,0,0,1-.47,1.555,2.823,2.823,0,0,1-1.2.933,3.887,3.887,0,0,1-1.5.3A3.492,3.492,0,0,1,200.448,392.628Z" transform="translate(-122.637 -373.126)" fill="#fff"/>
    <path id="Path_104" data-name="Path 104" d="M225.906,384.083h3.255a3.3,3.3,0,0,1,1.555.371,2.89,2.89,0,0,1,1.125,1.032,2.891,2.891,0,0,1,0,2.991,2.885,2.885,0,0,1-1.125,1.033,3.3,3.3,0,0,1-1.555.371h-1.8v3.679h-1.456Zm3.3,4.42a1.559,1.559,0,0,0,1.171-.457,1.5,1.5,0,0,0,0-2.13,1.558,1.558,0,0,0-1.171-.456h-1.84V388.5Z" transform="translate(-140.896 -373.581)" fill="#fff"/>
    <path id="Path_105" data-name="Path 105" d="M252.169,392.654a4.783,4.783,0,0,1-1.767-1.793,5.169,5.169,0,0,1,0-4.989,4.785,4.785,0,0,1,1.767-1.793,4.9,4.9,0,0,1,6.756,1.793,5.171,5.171,0,0,1,0,4.989,4.959,4.959,0,0,1-6.756,1.793Zm4.241-1.171a3.31,3.31,0,0,0,1.244-1.27,3.962,3.962,0,0,0,0-3.693,3.307,3.307,0,0,0-1.244-1.27,3.543,3.543,0,0,0-3.48,0,3.311,3.311,0,0,0-1.244,1.27,3.962,3.962,0,0,0,0,3.693,3.313,3.313,0,0,0,1.244,1.27,3.546,3.546,0,0,0,3.48,0Z" transform="translate(-157.167 -373.126)" fill="#fff"/>
    <path id="Path_106" data-name="Path 106" d="M286.519,384.083h1.72l4.288,6.961h.079l-.079-1.826v-5.135h1.443v9.475h-1.509l-4.5-7.318h-.079l.079,1.826v5.492h-1.443Z" transform="translate(-182.242 -373.581)" fill="#fff"/>
    <path id="Path_107" data-name="Path 107" d="M317.493,384.083h1.456v9.475h-1.456Z" transform="translate(-203.37 -373.581)" fill="#fff"/>
    <path id="Path_108" data-name="Path 108" d="M329.566,384.083h3.547a3.044,3.044,0,0,1,1.4.331,2.627,2.627,0,0,1,1.025.906,2.282,2.282,0,0,1,.377,1.277,2.146,2.146,0,0,1-.351,1.224,2.288,2.288,0,0,1-.933.8v.066a2.389,2.389,0,0,1,1.178.834,2.23,2.23,0,0,1,.436,1.376,2.423,2.423,0,0,1-.4,1.383,2.745,2.745,0,0,1-1.085.94,3.307,3.307,0,0,1-1.489.338h-3.705Zm3.48,3.983a1.418,1.418,0,0,0,1.059-.4,1.29,1.29,0,0,0,.4-.933,1.261,1.261,0,0,0-.39-.92,1.37,1.37,0,0,0-1.013-.39h-2.078v2.647Zm.225,4.142a1.494,1.494,0,0,0,1.1-.417,1.4,1.4,0,0,0-.013-2,1.561,1.561,0,0,0-1.145-.423h-2.2v2.845Z" transform="translate(-211.605 -373.581)" fill="#fff"/>
    <path id="Path_109" data-name="Path 109" d="M356.626,384.083h1.456v8.1h4.076v1.376h-5.531Z" transform="translate(-230.063 -373.581)" fill="#fff"/>
    <path id="Path_110" data-name="Path 110" d="M378.857,384.083H384.6v1.376h-4.288v2.673h3.864v1.376h-3.864v2.673H384.6v1.376h-5.744Z" transform="translate(-245.227 -373.581)" fill="#fff"/>
    <path id="Path_111" data-name="Path 111" d="M411.556,392.628a3.572,3.572,0,0,1-1.31-1.932l1.376-.556a2.654,2.654,0,0,0,.754,1.3,1.859,1.859,0,0,0,1.31.5,1.966,1.966,0,0,0,1.211-.37,1.2,1.2,0,0,0,.5-1.019,1.265,1.265,0,0,0-.437-.986,4.612,4.612,0,0,0-1.509-.761l-.6-.212a4.44,4.44,0,0,1-1.608-.96A2.159,2.159,0,0,1,410.6,386a2.378,2.378,0,0,1,.377-1.3,2.615,2.615,0,0,1,1.059-.94,3.374,3.374,0,0,1,1.542-.344,3.034,3.034,0,0,1,1.972.6,3.066,3.066,0,0,1,1.006,1.356l-1.31.556a1.594,1.594,0,0,0-.556-.82,1.686,1.686,0,0,0-1.1-.344,1.754,1.754,0,0,0-1.1.344,1.056,1.056,0,0,0-.45.873,1,1,0,0,0,.4.814,4.236,4.236,0,0,0,1.25.615l.609.212a4.8,4.8,0,0,1,1.879,1.1,2.46,2.46,0,0,1,.662,1.8,2.524,2.524,0,0,1-.47,1.555,2.825,2.825,0,0,1-1.2.933,3.888,3.888,0,0,1-1.5.3A3.493,3.493,0,0,1,411.556,392.628Z" transform="translate(-266.638 -373.126)" fill="#fff"/>
    <path id="Path_112" data-name="Path 112" d="M438.049,393.293a3.207,3.207,0,0,1-1.257-1.35,4.411,4.411,0,0,1-.443-2.025v-5.836h1.443V390a2.6,2.6,0,0,0,.556,1.734,2.221,2.221,0,0,0,3.163,0,2.6,2.6,0,0,0,.556-1.734v-5.915h1.443v5.836a4.44,4.44,0,0,1-.437,2.012,3.22,3.22,0,0,1-1.244,1.356,3.958,3.958,0,0,1-3.778.007Z" transform="translate(-284.443 -373.581)" fill="#fff"/>
    <path id="Path_113" data-name="Path 113" d="M465.989,384.083h3.322a3.253,3.253,0,0,1,1.555.371,2.8,2.8,0,0,1,1.5,2.527,2.552,2.552,0,0,1-.615,1.687,2.986,2.986,0,0,1-1.542.986l-.013.066,2.607,3.758v.079h-1.681L468.6,389.84h-1.151v3.719h-1.456Zm3.282,4.42a1.638,1.638,0,0,0,1.158-.437,1.437,1.437,0,0,0,.469-1.1,1.515,1.515,0,0,0-1.575-1.522h-1.879V388.5Z" transform="translate(-304.662 -373.581)" fill="#fff"/>
    <rect id="Rectangle_271" data-name="Rectangle 271" width="205.349" height="60.845" transform="translate(0 0)" fill="none"/>
  </g>
</svg>
