<svg xmlns="http://www.w3.org/2000/svg" width="193.444" height="61.845" viewBox="0 0 193.444 61.845">
  <g id="Group_334" data-name="Group 334" transform="translate(0.5 0.5)">
    <path id="Path_114" data-name="Path 114" d="M797.751,351.044H634.306c-.558,0-1.109,0-1.665,0-.466,0-.928.012-1.4.019a20.118,20.118,0,0,0-3.048.269,10.14,10.14,0,0,0-2.892.954,9.8,9.8,0,0,0-2.462,1.793,9.516,9.516,0,0,0-1.792,2.466,10.036,10.036,0,0,0-.951,2.895,19.758,19.758,0,0,0-.272,3.045c-.014.466-.016.934-.023,1.4v35.159c.007.472.009.93.023,1.4a19.752,19.752,0,0,0,.272,3.045,10.015,10.015,0,0,0,.951,2.9,9.442,9.442,0,0,0,1.792,2.456,9.538,9.538,0,0,0,2.462,1.793,10.2,10.2,0,0,0,2.892.96,20.493,20.493,0,0,0,3.048.269c.47.01.932.016,1.4.016.556,0,1.108,0,1.665,0H797.751c.547,0,1.1,0,1.649,0,.464,0,.939-.006,1.4-.016a20.2,20.2,0,0,0,3.042-.269,10.35,10.35,0,0,0,2.9-.96,9.544,9.544,0,0,0,2.46-1.793,9.711,9.711,0,0,0,1.8-2.456,10.05,10.05,0,0,0,.942-2.9,20.53,20.53,0,0,0,.282-3.045c.006-.472.006-.93.006-1.4.012-.553.012-1.1.012-1.664V365.55c0-.557,0-1.11-.012-1.661,0-.467,0-.935-.006-1.4a20.53,20.53,0,0,0-.282-3.045,10.064,10.064,0,0,0-.942-2.9,9.835,9.835,0,0,0-4.257-4.259,10.3,10.3,0,0,0-2.9-.954,19.827,19.827,0,0,0-3.042-.269c-.464-.008-.939-.017-1.4-.019-.547,0-1.1,0-1.649,0Z" transform="translate(-619.803 -351.044)" fill="none" stroke="#fff" stroke-miterlimit="10" stroke-width="1"/>
    <g id="_Group_2" data-name=" Group 2" transform="translate(14.616 11.936)">
      <g id="_Group_3" data-name=" Group 3">
        <path id="_Path_" data-name=" Path " d="M689.191,424.741a7.828,7.828,0,0,1,3.728-6.568,8.014,8.014,0,0,0-6.313-3.413c-2.656-.279-5.231,1.59-6.585,1.59-1.38,0-3.464-1.562-5.708-1.516a8.407,8.407,0,0,0-7.075,4.315c-3.059,5.3-.777,13.081,2.153,17.362,1.466,2.1,3.18,4.438,5.422,4.355,2.194-.091,3.013-1.4,5.662-1.4,2.624,0,3.393,1.4,5.68,1.347,2.354-.039,3.838-2.106,5.253-4.222a17.341,17.341,0,0,0,2.4-4.892A7.564,7.564,0,0,1,689.191,424.741Z" transform="translate(-665.784 -406.423)" fill="#fff"/>
        <path id="_Path_2" data-name=" Path 2" d="M714.8,394.116a7.706,7.706,0,0,0,1.763-5.522,7.843,7.843,0,0,0-5.074,2.625,7.334,7.334,0,0,0-1.809,5.317A6.484,6.484,0,0,0,714.8,394.116Z" transform="translate(-695.719 -388.594)" fill="#fff"/>
      </g>
    </g>
    <g id="_Group_4" data-name=" Group 4" transform="translate(51.329 12.205)">
      <g id="Group_332" data-name="Group 332">
        <path id="Path_115" data-name="Path 115" d="M784.132,401.919v-7.793h-2.855v-1.283h7.114v1.283h-2.849v7.793Z" transform="translate(-781.277 -391.761)" fill="#fff"/>
        <path id="Path_116" data-name="Path 116" d="M811.058,397.748a2.78,2.78,0,0,1-2.968,1.982,3.11,3.11,0,0,1-3.164-3.535,3.16,3.16,0,0,1,3.158-3.578c1.906,0,3.055,1.3,3.055,3.453v.472H806.3v.076a1.81,1.81,0,0,0,1.652,1.956c.057.005.115.007.172.006a1.641,1.641,0,0,0,1.629-.83ZM806.3,395.54h3.459a1.653,1.653,0,0,0-1.526-1.77c-.053,0-.107-.005-.16,0a1.752,1.752,0,0,0-1.773,1.73Q806.3,395.518,806.3,395.54Zm.968-3.938,1.579-2.163h1.585l-1.768,2.163Z" transform="translate(-797.388 -389.439)" fill="#fff"/>
        <path id="Path_117" data-name="Path 117" d="M830.443,391.436h1.352v9.523h-1.352Z" transform="translate(-814.814 -390.801)" fill="#fff"/>
        <path id="Path_118" data-name="Path 118" d="M846.676,397.748a2.78,2.78,0,0,1-2.968,1.982,3.11,3.11,0,0,1-3.164-3.535,3.16,3.16,0,0,1,3.158-3.578c1.906,0,3.056,1.3,3.056,3.453v.472h-4.836v.076a1.81,1.81,0,0,0,1.652,1.956,1.719,1.719,0,0,0,.172.006,1.641,1.641,0,0,0,1.629-.83Zm-4.755-2.207h3.46a1.653,1.653,0,0,0-1.526-1.77c-.053,0-.106-.005-.16,0a1.752,1.752,0,0,0-1.774,1.73c0,.015,0,.03,0,.045Zm.969-3.938,1.579-2.163h1.585l-1.768,2.163Z" transform="translate(-821.684 -389.439)" fill="#fff"/>
        <path id="Path_119" data-name="Path 119" d="M869.554,401.778a1.529,1.529,0,0,0-1.618-1.163c-1.132,0-1.824.867-1.824,2.327,0,1.485.7,2.372,1.824,2.372a1.489,1.489,0,0,0,1.618-1.126h1.315a2.68,2.68,0,0,1-2.925,2.333,3.558,3.558,0,1,1-.008-7.114,2.7,2.7,0,0,1,2.932,2.371Z" transform="translate(-838.181 -396.231)" fill="#fff"/>
        <path id="Path_120" data-name="Path 120" d="M889.753,391.436h1.34v3.775h.107a2.108,2.108,0,0,1,2.089-1.227,2.256,2.256,0,0,1,2.375,2.13,2.229,2.229,0,0,1-.017.423v4.422h-1.353v-4.089c0-1.094-.51-1.648-1.464-1.648a1.6,1.6,0,0,0-1.725,1.737v4h-1.352Z" transform="translate(-855.271 -390.801)" fill="#fff"/>
        <path id="Path_121" data-name="Path 121" d="M913.642,404.477c0-1.233.918-1.944,2.547-2.045l1.855-.107v-.591c0-.724-.478-1.132-1.4-1.132-.755,0-1.278.277-1.428.761h-1.309c.138-1.177,1.245-1.931,2.8-1.931,1.717,0,2.686.855,2.686,2.3v4.68h-1.3v-.963h-.107a2.3,2.3,0,0,1-2.057,1.075,2.069,2.069,0,0,1-2.272-1.844A2.032,2.032,0,0,1,913.642,404.477Zm4.4-.586v-.572l-1.672.107c-.943.063-1.371.384-1.371.988s.535.975,1.27.975a1.615,1.615,0,0,0,1.769-1.444c0-.018,0-.036,0-.054Z" transform="translate(-871.566 -396.255)" fill="#fff"/>
        <path id="Path_122" data-name="Path 122" d="M938.385,399.595h1.3v1.05h.1a1.857,1.857,0,0,1,1.849-1.164,2.848,2.848,0,0,1,.6.057v1.334a3.719,3.719,0,0,0-.755-.082,1.605,1.605,0,0,0-1.742,1.455c0,.052-.007.1-.006.155v4.044h-1.352Z" transform="translate(-888.444 -396.286)" fill="#fff"/>
        <path id="Path_123" data-name="Path 123" d="M953.843,407.136h1.383c.114.5.686.818,1.6.818,1.126,0,1.793-.535,1.793-1.44V405.2h-.1a2.3,2.3,0,0,1-2.114,1.15c-1.748,0-2.83-1.352-2.83-3.4,0-2.089,1.093-3.46,2.843-3.46a2.373,2.373,0,0,1,2.151,1.208h.107V399.6h1.3v6.906c0,1.566-1.227,2.56-3.164,2.56C955.094,409.067,953.987,408.3,953.843,407.136Zm4.8-4.2c0-1.365-.706-2.238-1.857-2.238s-1.817.874-1.817,2.238.654,2.239,1.817,2.239,1.857-.867,1.857-2.239Z" transform="translate(-898.804 -396.292)" fill="#fff"/>
        <path id="Path_124" data-name="Path 124" d="M985.47,404.564a2.781,2.781,0,0,1-2.968,1.982,3.11,3.11,0,0,1-3.164-3.535,3.16,3.16,0,0,1,3.158-3.578c1.906,0,3.055,1.3,3.055,3.453v.472h-4.837v.076a1.81,1.81,0,0,0,1.652,1.956c.057.005.114.007.172.006a1.641,1.641,0,0,0,1.629-.83Zm-4.755-2.207h3.46a1.653,1.653,0,0,0-1.526-1.77c-.053,0-.107-.005-.16,0a1.752,1.752,0,0,0-1.774,1.73v.045Z" transform="translate(-916.359 -396.255)" fill="#fff"/>
        <path id="Path_125" data-name="Path 125" d="M1004.658,399.595h1.3v1.05h.1a1.857,1.857,0,0,1,1.849-1.164,2.844,2.844,0,0,1,.6.057v1.334a3.741,3.741,0,0,0-.755-.082,1.605,1.605,0,0,0-1.742,1.455c0,.052-.007.1-.006.155v4.044h-1.352Z" transform="translate(-933.65 -396.286)" fill="#fff"/>
        <path id="Path_126" data-name="Path 126" d="M1032.108,397.532c0-2.164,1.112-3.535,2.843-3.535a2.258,2.258,0,0,1,2.1,1.2h.1v-3.762h1.352v9.523h-1.3v-1.082h-.107a2.376,2.376,0,0,1-2.151,1.195C1033.208,401.072,1032.108,399.7,1032.108,397.532Zm1.4,0c0,1.453.685,2.327,1.83,2.327s1.843-.887,1.843-2.321-.711-2.327-1.843-2.327-1.83.88-1.83,2.321Z" transform="translate(-952.374 -390.801)" fill="#fff"/>
        <path id="Path_127" data-name="Path 127" d="M1057.978,404.477c0-1.233.918-1.944,2.547-2.045l1.855-.107v-.591c0-.724-.478-1.132-1.4-1.132-.755,0-1.278.277-1.428.761h-1.309c.138-1.177,1.245-1.931,2.8-1.931,1.718,0,2.686.855,2.686,2.3v4.68h-1.3v-.963h-.107a2.3,2.3,0,0,1-2.057,1.075,2.069,2.069,0,0,1-2.272-1.844A2,2,0,0,1,1057.978,404.477Zm4.4-.586v-.572l-1.673.107c-.943.063-1.371.384-1.371.988s.535.975,1.27.975a1.615,1.615,0,0,0,1.769-1.444c0-.018,0-.036,0-.054Z" transform="translate(-970.021 -396.255)" fill="#fff"/>
        <path id="Path_128" data-name="Path 128" d="M1082.721,399.55h1.3v1.088h.1a2.05,2.05,0,0,1,2.044-1.22,2.227,2.227,0,0,1,2.371,2.547V406.4h-1.352V402.3c0-1.1-.478-1.648-1.478-1.648a1.571,1.571,0,0,0-1.643,1.5,1.553,1.553,0,0,0,.007.239V406.4h-1.352Z" transform="translate(-986.898 -396.241)" fill="#fff"/>
        <path id="Path_129" data-name="Path 129" d="M1109.386,399.432c1.541,0,2.547.717,2.68,1.924h-1.3c-.125-.5-.616-.824-1.383-.824s-1.328.358-1.328.893c0,.409.346.667,1.089.837l1.138.264c1.3.3,1.914.862,1.914,1.869,0,1.289-1.2,2.151-2.838,2.151s-2.692-.736-2.812-1.95h1.353a1.39,1.39,0,0,0,1.49.855c.842,0,1.441-.377,1.441-.925,0-.408-.321-.673-1.007-.836l-1.194-.277c-1.3-.308-1.906-.893-1.906-1.912C1106.726,400.287,1107.838,399.432,1109.386,399.432Z" transform="translate(-1003.152 -396.255)" fill="#fff"/>
      </g>
    </g>
    <g id="Group_333" data-name="Group 333" transform="translate(53.531 27.184)">
      <path id="Path_130" data-name="Path 130" d="M788.205,437.552h2.828v18.889h-2.828Z" transform="translate(-788.205 -437.237)" fill="#fff"/>
      <path id="Path_131" data-name="Path 131" d="M807.823,444.464l1.545-6.912h2.748l-1.872,6.912Z" transform="translate(-801.587 -437.237)" fill="#fff"/>
      <path id="Path_132" data-name="Path 132" d="M829.246,451.336h-7.2l-1.729,5.106h-3.05l6.82-18.889h3.169l6.82,18.889h-3.1Zm-6.455-2.356H828.5l-2.813-8.286h-.078Z" transform="translate(-808.029 -437.237)" fill="#fff"/>
      <path id="Path_133" data-name="Path 133" d="M888.634,460.223c0,4.28-2.291,7.029-5.747,7.029a4.669,4.669,0,0,1-4.333-2.41h-.065v6.821h-2.827V453.336H878.4v2.291h.052a4.884,4.884,0,0,1,4.385-2.435C886.33,453.193,888.634,455.955,888.634,460.223Zm-2.905,0c0-2.788-1.441-4.621-3.639-4.621-2.16,0-3.613,1.872-3.613,4.621,0,2.775,1.453,4.633,3.613,4.633C884.287,464.856,885.728,463.037,885.728,460.223Z" transform="translate(-847.861 -447.904)" fill="#fff"/>
      <path id="Path_134" data-name="Path 134" d="M936.318,460.223c0,4.28-2.291,7.029-5.747,7.029a4.668,4.668,0,0,1-4.333-2.41h-.066v6.821h-2.828V453.336h2.737v2.291h.052a4.884,4.884,0,0,1,4.385-2.435C934.014,453.193,936.318,455.955,936.318,460.223Zm-2.905,0c0-2.788-1.441-4.621-3.639-4.621-2.16,0-3.613,1.872-3.613,4.621,0,2.775,1.453,4.633,3.613,4.633C931.972,464.856,933.413,463.037,933.413,460.223Z" transform="translate(-880.387 -447.904)" fill="#fff"/>
      <path id="Path_135" data-name="Path 135" d="M989.463,450.5c.209,1.873,2.029,3.1,4.516,3.1,2.383,0,4.1-1.23,4.1-2.919,0-1.466-1.034-2.344-3.482-2.945l-2.448-.59c-3.468-.838-5.079-2.46-5.079-5.092,0-3.259,2.84-5.5,6.873-5.5,3.991,0,6.728,2.239,6.82,5.5h-2.854c-.171-1.885-1.729-3.023-4.006-3.023s-3.836,1.151-3.836,2.827c0,1.335,1,2.121,3.43,2.723l2.081.511c3.876.916,5.486,2.473,5.486,5.236,0,3.534-2.815,5.747-7.292,5.747-4.189,0-7.017-2.161-7.2-5.578Z" transform="translate(-923.513 -436.561)" fill="#fff"/>
      <path id="Path_136" data-name="Path 136" d="M1040.964,443.4v3.259h2.619V448.9h-2.619v7.592c0,1.179.524,1.729,1.676,1.729a8.824,8.824,0,0,0,.93-.065v2.225a7.765,7.765,0,0,1-1.57.131c-2.788,0-3.875-1.047-3.875-3.718V448.9h-2v-2.238h2V443.4Z" transform="translate(-957.315 -441.225)" fill="#fff"/>
      <path id="Path_137" data-name="Path 137" d="M1064.361,460.174c0-4.333,2.552-7.056,6.531-7.056s6.533,2.723,6.533,7.056-2.526,7.056-6.533,7.056S1064.361,464.519,1064.361,460.174Zm10.184,0c0-2.972-1.362-4.727-3.653-4.727s-3.651,1.768-3.651,4.727c0,2.984,1.361,4.725,3.651,4.725S1074.545,463.158,1074.545,460.174Z" transform="translate(-976.577 -447.855)" fill="#fff"/>
      <path id="Path_138" data-name="Path 138" d="M1112.792,453.336h2.7v2.344h.065a3.285,3.285,0,0,1,3.313-2.488,4.367,4.367,0,0,1,.968.106v2.644a3.948,3.948,0,0,0-1.27-.171,2.848,2.848,0,0,0-2.962,2.731,2.819,2.819,0,0,0,.016.438v8.169h-2.827Z" transform="translate(-1009.613 -447.904)" fill="#fff"/>
      <path id="Path_139" data-name="Path 139" d="M1149.286,463.014c-.38,2.5-2.815,4.216-5.93,4.216-4.006,0-6.493-2.684-6.493-6.99s2.5-7.121,6.374-7.121c3.81,0,6.206,2.617,6.206,6.793v.969h-9.727v.171a3.588,3.588,0,0,0,3.7,3.9,3.116,3.116,0,0,0,3.18-1.937Zm-9.556-4.11h6.885a3.312,3.312,0,0,0-3.123-3.491q-.127-.007-.255,0a3.487,3.487,0,0,0-3.507,3.466Z" transform="translate(-1026.032 -447.855)" fill="#fff"/>
    </g>
  </g>
</svg>
